# xmcd
#
# Track frame offsets:
#	150
#	14205
#	26876
#	38955
#	51421
#	61632
#	72057
#	83551
#	98816
#	109995
#	122692
#	134728
#	147043
#	158951
#	173506
#
# Disc length: 2514 seconds
#
# Revision: 2
# Processed by: cddbd v1.5.2PL0 Copyright (c) Steve Scherf et al.
# Submitted via: audiograbber 1.83.01
#
DISCID=d009d00f
DTITLE=Good Time Charlie - It's Alright
DYEAR=2005
DGENRE=Blues
TTITLE0=It's Alright
TTITLE1=Lucky Man
TTITLE2=The Way You Do
TTITLE3=Stop What You're Doing
TTITLE4=Cha-Dooky-Doo
TTITLE5=You Must Have Been A Beautiful Baby
TTITLE6=Deep Trouble
TTITLE7=I'm Not A Fool Anymore
TTITLE8=The Revenge Of The Kebab
TTITLE9=Nosy Ways
TTITLE10=Upside Down
TTITLE11=Kingsize
TTITLE12=I Don't Care
TTITLE13=Easy Street
TTITLE14=There's Another Place I Can't Go
EXTD=
EXTT0=
EXTT1=
EXTT2=
EXTT3=
EXTT4=
EXTT5=
EXTT6=
EXTT7=
EXTT8=
EXTT9=
EXTT10=
EXTT11=
EXTT12=
EXTT13=
EXTT14=
PLAYORDER=
